<?xml version="1.0" encoding="UTF-8"?>
<svg width="659px" height="1137px" viewBox="0 0 659 1137" version="1.1" xmlns="http://www.w3.org/2000/svg" xmlns:xlink="http://www.w3.org/1999/xlink">
    <!-- Generator: Sketch 63.1 (92452) - https://sketch.com -->
    <title>Desktop HD</title>
    <desc>Created with Sketch.</desc>
    <defs>
        <path d="M329.5,16 C475.579316,16 594,84.6741159 594,169.387931 C594,175.078355 593.465671,180.696407 592.424523,186.226132 C593.412064,187.557161 594,189.209921 594,191 L594,428 C594,431.667639 591.531922,434.758827 588.166017,435.703313 L595,435.703448 L595,755.999 L659,756 L659,945 L0,945 L0,756 L66,755.999 L66,435.703448 L70.8349898,435.703596 C67.4685702,434.759443 65,431.668004 65,428 L65,191 C65,189.209921 65.5879364,187.557161 66.5812406,186.22429 C65.5343286,180.696407 65,175.078355 65,169.387931 C65,84.6741159 183.420684,16 329.5,16 Z M225,359 L104,359 L104,660 L225,660 L225,359 Z M390,359 L269,359 L269,660 L390,660 L390,359 Z M555,359 L434,359 L434,660 L555,660 L555,359 Z M553,183 L110,183 C105.665086,183 102.135457,186.447838 102.003807,190.750821 L102,191 L102,302 C102,306.334914 105.447838,309.864543 109.750821,309.996193 L110,310 L553,310 C557.334914,310 560.864543,306.552162 560.996193,302.249179 L561,302 L561,191 C561,186.581722 557.418278,183 553,183 Z" id="path-1"></path>
        <filter x="-1.1%" y="-0.5%" width="102.1%" height="101.5%" filterUnits="objectBoundingBox" id="filter-2">
            <feOffset dx="0" dy="2" in="SourceAlpha" result="shadowOffsetOuter1"></feOffset>
            <feGaussianBlur stdDeviation="2" in="shadowOffsetOuter1" result="shadowBlurOuter1"></feGaussianBlur>
            <feColorMatrix values="0 0 0 0 0   0 0 0 0 0   0 0 0 0 0  0 0 0 0.5 0" type="matrix" in="shadowBlurOuter1"></feColorMatrix>
        </filter>
    </defs>
    <g id="Desktop-HD" stroke="none" stroke-width="1" fill="none" fill-rule="evenodd">
        <g id="Combined-Shape">
            <use fill="black" fill-opacity="1" filter="url(#filter-2)" xlink:href="#path-1"></use>
            <use fill="#002F41" fill-rule="evenodd" xlink:href="#path-1"></use>
        </g>
    </g>
</svg>