<?xml version="1.0" encoding="UTF-8"?>
<svg width="406px" height="687px" viewBox="0 0 406 687" version="1.1" xmlns="http://www.w3.org/2000/svg" xmlns:xlink="http://www.w3.org/1999/xlink">
    <!-- Generator: Sketch 63.1 (92452) - https://sketch.com -->
    <title>Combined Shape</title>
    <desc>Created with Sketch.</desc>
    <g id="Page-1" stroke="none" stroke-width="1" fill="none" fill-rule="evenodd" fill-opacity="0.389887456">
        <path d="M203,1.5 C147.919713,1.5 97.9894961,19.4344013 61.5934928,48.5320496 C25.2606329,77.5792164 2.41785294,117.75973 1.52704691,162.293877 L1.5,165.007475 L1.5,679 C1.5,680.794925 2.22753728,682.419925 3.40380592,683.596194 C4.58007456,684.772463 6.20507456,685.5 8,685.5 L398,685.5 C399.794925,685.5 401.419925,684.772463 402.596194,683.596194 C403.772463,682.419925 404.5,680.794925 404.5,679 L404.5,165.007475 L404.472953,162.293877 C403.582147,117.75973 380.739367,77.5792164 344.406507,48.5320496 C308.010504,19.4344013 258.080287,1.5 203,1.5 Z" id="Combined-Shape" stroke="#000000" stroke-width="3" fill="#002F41"></path>
    </g>
</svg>